<svg xmlns="http://www.w3.org/2000/svg" version="1.1" xmlns:xlink="http://www.w3.org/1999/xlink" xmlns:svgjs="http://svgjs.dev/svgjs" width="1000" height="999" viewBox="0 0 1000 999"><g transform="matrix(1,0,0,1,-0.215743440233382,-0.21552769679306039)"><svg viewBox="0 0 343 343" data-background-color="#ffffff" preserveAspectRatio="xMidYMid meet" height="999" width="1000" xmlns="http://www.w3.org/2000/svg" xmlns:xlink="http://www.w3.org/1999/xlink"><g id="tight-bounds" transform="matrix(1,0,0,1,0.0740000000000407,0.07400000000001228)"><svg viewBox="0 0 342.85155851775386 342.85155851775386" height="342.85155851775386" width="342.85155851775386"><g><svg></svg></g><g><svg viewBox="0 0 342.85155851775386 342.85155851775386" height="342.85155851775386" width="342.85155851775386"><g><path d="M0 171.426c0-94.676 76.75-171.426 171.426-171.426 94.676 0 171.426 76.75 171.426 171.426 0 94.676-76.75 171.426-171.426 171.426-94.676 0-171.426-76.75-171.426-171.426zM171.426 340.246c93.237 0 168.821-75.584 168.82-168.82 0-93.237-75.584-168.821-168.82-168.821-93.237 0-168.821 75.584-168.821 168.821 0 93.237 75.584 168.821 168.821 168.82z" data-fill-palette-color="tertiary" fill="#755bb4" stroke="transparent"></path><ellipse rx="164.56874808852186" ry="164.56874808852186" cx="171.42577925887693" cy="171.42577925887693" fill="#755bb4" stroke="transparent" stroke-width="0" fill-opacity="1" data-fill-palette-color="tertiary"></ellipse></g><g transform="matrix(1,0,0,1,64.84655864529837,156.98127539317753)"><svg viewBox="0 0 213.1584412271571 28.88900773139878" height="28.88900773139878" width="213.1584412271571"><g><svg viewBox="0 0 213.1584412271571 28.88900773139878" height="28.88900773139878" width="213.1584412271571"><g><svg viewBox="0 0 213.1584412271571 28.88900773139878" height="28.88900773139878" width="213.1584412271571"><g><svg viewBox="0 0 213.1584412271571 28.88900773139878" height="28.88900773139878" width="213.1584412271571"><g id="textblocktransform"><svg viewBox="0 0 213.1584412271571 28.88900773139878" height="28.88900773139878" width="213.1584412271571" id="textblock"><g><svg viewBox="0 0 213.1584412271571 28.88900773139878" height="28.88900773139878" width="213.1584412271571"><g transform="matrix(1,0,0,1,0,0)"><svg width="213.1584412271571" viewBox="2.5 -35.20000076293945 261.17999267578125 35.400001525878906" height="28.88900773139878" data-palette-color="#ffffff"><path d="M5.75-32.25L2.5-32.25 2.5-35 13.25-35Q24.05-35 24.05-26.55L24.05-26.55Q24.05-23 21.35-18.9L21.35-18.9Q26.1-16.95 26.1-10.35L26.1-10.35Q26.1-4.45 23.13-2.23 20.15 0 14 0L14 0 2.5 0 2.5-2.75 5.75-2.75 5.75-32.25ZM15-17.15L15-17.15 9.15-17.15 9.15-2.75 13.75-2.75Q16.05-2.75 17.5-3 18.95-3.25 20.25-4L20.25-4Q22.7-5.35 22.7-10.15L22.7-10.15Q22.7-13.95 20.78-15.55 18.85-17.15 15-17.15ZM9.15-19.9L15.25-19.9Q17.1-19.9 18.45-19.7L18.45-19.7Q20.65-23.15 20.65-26.25L20.65-26.25Q20.65-32.25 13-32.25L13-32.25 9.15-32.25 9.15-19.9ZM32.55-32.25L29.5-32.25 29.5-35 41.55-35Q46.7-35 49.5-32.75 52.3-30.5 52.3-26.05L52.3-26.05Q52.3-23.1 50.22-19.93 48.15-16.75 46.15-15.6L46.15-15.6 54.05-2.75 57.6-2.75 57.6 0 52.1 0 43.2-14.35 35.95-14.35 35.95-2.75 39.6-2.75 39.6 0 29.5 0 29.5-2.75 32.55-2.75 32.55-32.25ZM41.3-32.25L41.3-32.25 35.95-32.25 35.95-17.1 44.2-17.1Q48.9-21.4 48.9-25.75L48.9-25.75Q48.9-28.95 46.95-30.6 45-32.25 41.3-32.25ZM63.64-32.25L60.59-32.25 60.59-35 81.84-35 81.8-34.7 82.44-27.8 79.94-27.4 79.34-32.25 67.05-32.25 67.05-18.85 77.94-18.85 77.94-22 80.69-22 80.69-13.4 77.94-13.4 77.94-16.1 67.05-16.1 67.05-2.75 80.69-2.75 81.44-9 83.89-8.75 83.14 0 60.59 0 60.59-2.75 63.64-2.75 63.64-32.25ZM90.14-32.25L86.94-32.25 86.94-35 93.79-35 113.69-4.5 113.49-32.25 110.24-32.25 110.24-35 119.79-35 119.79-32.25 116.64-32.25 116.64 0 112.99 0 93.04-30.5 93.24-2.75 97.04-2.75 97.04 0 86.94 0 86.94-2.75 90.14-2.75 90.14-32.25ZM138.64 0L128.59 0 128.59-2.75 131.84-2.75 131.84-32 124.49-32 123.94-27.4 121.49-27.8 122.09-35 144.89-35 145.54-27.8 143.04-27.4 142.44-32 134.99-32 134.99-2.75 138.64-2.75 138.64 0ZM157.74-2.95L157.74-2.95Q163.29-2.95 165.99-5.75L165.99-5.75Q167.54-7.35 167.54-9.55 167.54-11.75 166.46-13.18 165.39-14.6 163.69-15.38 161.99-16.15 159.91-16.73 157.84-17.3 155.76-17.95 153.69-18.6 151.99-19.5 150.29-20.4 149.21-22.05 148.14-23.7 148.14-26L148.14-26Q148.14-30 151.14-32.55 154.14-35.1 159.09-35.1 164.04-35.1 168.39-34.1L168.39-34.1 168.39-34.05 168.54-34.05 169.09-27.8 166.64-27.4 166.09-31.6Q163.29-32.1 159.91-32.1 156.54-32.1 154.04-30.63 151.54-29.15 151.54-26.45 151.54-23.75 153.54-22.35 155.54-20.95 158.39-20.23 161.24-19.5 164.09-18.6 166.94-17.7 168.94-15.5 170.94-13.3 170.94-9.7L170.94-9.7Q170.94-4.85 167.34-2.4 163.74 0.05 158.39 0.05L158.39 0.05Q151.64 0.05 147.09-3L147.09-3 147.14-8.3 149.59-8.55 149.69-4.75Q153.49-2.95 157.74-2.95ZM203.84 0L193.74 0 193.74-2.75 197.14-2.75 197.14-15.85 180.09-15.85 180.09-2.75 183.79-2.75 183.79 0 173.69 0 173.69-2.75 176.94-2.75 176.94-32.25 173.69-32.25 173.69-35 183.79-35 183.79-32.25 180.09-32.25 180.09-18.85 197.14-18.85 197.14-32.25 193.74-32.25 193.74-35 203.34-35 203.34-32.25 200.29-32.25 200.29-2.75 203.84-2.75 203.84 0ZM207.38-17.4L207.38-17.4Q207.38-25.55 211.61-30.38 215.83-35.2 222.13-35.2L222.13-35.2Q236.88-35.2 236.88-17.4L236.88-17.4Q236.88-9.3 232.68-4.55 228.48 0.2 222.13 0.2L222.13 0.2Q207.38 0.2 207.38-17.4ZM210.78-17.5L210.78-17.5Q210.78-2.8 222.13-2.8L222.13-2.8Q227.03-2.8 230.26-6.7 233.48-10.6 233.48-17.5L233.48-17.5Q233.48-32.2 222.13-32.2L222.13-32.2Q217.23-32.2 214.01-28.28 210.78-24.35 210.78-17.5ZM243.43-32.25L240.38-32.25 240.38-35 261.63-35 261.58-34.7 262.23-27.8 259.73-27.4 259.13-32.25 246.83-32.25 246.83-18.85 257.73-18.85 257.73-22 260.48-22 260.48-13.4 257.73-13.4 257.73-16.1 246.83-16.1 246.83-2.75 260.48-2.75 261.23-9 263.68-8.75 262.93 0 240.38 0 240.38-2.75 243.43-2.75 243.43-32.25Z" opacity="1" transform="matrix(1,0,0,1,0,0)" fill="#ffffff" class="wordmark-text-0" data-fill-palette-color="quaternary" id="text-0"></path></svg></g></svg></g></svg></g></svg></g><g></g></svg></g></svg></g></svg></g></svg></g><defs></defs></svg><rect width="342.85155851775386" height="342.85155851775386" fill="none" stroke="none" visibility="hidden"></rect></g></svg></g></svg>